<?xml version="1.0" encoding="UTF-8" standalone="no"?>
<!-- Created with Inkscape (http://www.inkscape.org/) -->

<svg
   xmlns:dc="http://purl.org/dc/elements/1.1/"
   xmlns:cc="http://creativecommons.org/ns#"
   xmlns:rdf="http://www.w3.org/1999/02/22-rdf-syntax-ns#"
   xmlns:svg="http://www.w3.org/2000/svg"
   xmlns="http://www.w3.org/2000/svg"
   xmlns:sodipodi="http://sodipodi.sourceforge.net/DTD/sodipodi-0.dtd"
   xmlns:inkscape="http://www.inkscape.org/namespaces/inkscape"
   width="512"
   height="512"
   viewBox="0 0 512.00001 512.00001"
   id="svg2"
   version="1.1"
   inkscape:version="0.91 r13725"
   inkscape:export-filename="/home/vesper/Desktop/logo.png"
   inkscape:export-xdpi="90"
   inkscape:export-ydpi="90"
   sodipodi:docname="logo.svg">
  <sodipodi:namedview
     id="base"
     pagecolor="#ffffff"
     bordercolor="#666666"
     borderopacity="1.0"
     inkscape:pageopacity="0.0"
     inkscape:pageshadow="2"
     inkscape:zoom="0.49497475"
     inkscape:cx="725.17811"
     inkscape:cy="205.26109"
     inkscape:document-units="px"
     inkscape:current-layer="layer1"
     showgrid="false"
     units="px"
     inkscape:window-width="1366"
     inkscape:window-height="744"
     inkscape:window-x="0"
     inkscape:window-y="24"
     inkscape:window-maximized="1" />
  <defs
     id="defs4" />
  <metadata
     id="metadata7">
    <rdf:RDF>
      <cc:Work
         rdf:about="">
        <dc:format>image/svg+xml</dc:format>
        <dc:type
           rdf:resource="http://purl.org/dc/dcmitype/StillImage" />
        <dc:title></dc:title>
      </cc:Work>
    </rdf:RDF>
  </metadata>
  <g
     transform="translate(0,-540.36216)"
     id="layer1"
     inkscape:groupmode="layer"
     inkscape:label="Layer 1">
    <g
       transform="translate(816.20326,14.142136)"
       id="g3704">
      <g
         id="g3404">
        <path
           inkscape:connector-curvature="0"
           id="rect3349"
           d="M-649.325035533 1037.50445174C-649.325035533 1037.50445174 -304.787093419 834.06196967 -304.787093419 834.06196967C-304.787093419 834.06196967 -385.854842778 526.863918235 -385.854842778 526.863918235C-385.854842778 526.863918235 -815.51392853 669.273604 -815.51392853 669.273604C-815.51392853 669.273604 -649.325035533 1037.50445174 -649.325035533 1037.50445174"
           style="fill:#ffffff;fill-opacity:1;stroke:none;stroke-width:3;stroke-miterlimit:4;stroke-dasharray:none;stroke-opacity:1" />
        <g
           style="fill:#1a1a1a"
           id="g3392">
          <g
             style="fill:#1a1a1a"
             id="g3376">
            <path
               inkscape:connector-curvature="0"
               id="rect3351"
               d="M-697.455988569 930.858927364C-697.455988569 930.858927364 -328.868628157 742.807425098 -328.868628157 742.807425098C-328.868628157 742.807425098 -331.142582283 734.190505523 -331.142582283 734.190505523C-331.142582283 734.190505523 -702.053551513 920.671937911 -702.053551513 920.671937911C-702.053551513 920.671937911 -697.455988569 930.858927364 -697.455988569 930.858927364"
               style="fill:#1a1a1a;fill-opacity:1;stroke:none;stroke-width:3;stroke-miterlimit:4;stroke-dasharray:none;stroke-opacity:1" />
            <path
               inkscape:connector-curvature="0"
               id="rect3362"
               d="M-750.673890604 812.942062839C-750.673890604 812.942062839 -354.914965315 644.10746013 -354.914965315 644.10746013C-354.914965315 644.10746013 -357.378591814 634.771796245 -357.378591814 634.771796245C-357.378591814 634.771796245 -755.771435905 801.647244072 -755.771435905 801.647244072C-755.771435905 801.647244072 -750.673890604 812.942062839 -750.673890604 812.942062839"
               style="fill:#1a1a1a;fill-opacity:1;stroke:none;stroke-width:3;stroke-miterlimit:4;stroke-dasharray:none;stroke-opacity:1" />
            <path
               inkscape:connector-curvature="0"
               id="rect3364"
               d="M-649.325035533 1037.50445174C-649.325035533 1037.50445174 -304.787093419 834.06196967 -304.787093419 834.06196967C-304.787093419 834.06196967 -306.892464963 826.083876766 -306.892464963 826.083876766C-306.892464963 826.083876766 -653.492724446 1028.26995 -653.492724446 1028.26995C-653.492724446 1028.26995 -649.325035533 1037.50445174 -649.325035533 1037.50445174"
               style="fill:#1a1a1a;fill-opacity:1;stroke:none;stroke-width:3;stroke-miterlimit:4;stroke-dasharray:none;stroke-opacity:1" />
            <path
               inkscape:connector-curvature="0"
               id="rect3366"
               d="M-809.830175344 681.867305158C-809.830175344 681.867305158 -383.176783879 537.012152051 -383.176783879 537.012152051C-383.176783879 537.012152051 -385.854842778 526.863918235 -385.854842778 526.863918235C-385.854842778 526.863918235 -815.51392853 669.273604 -815.51392853 669.273604C-815.51392853 669.273604 -809.830175344 681.867305158 -809.830175344 681.867305158"
               style="fill:#1a1a1a;fill-opacity:1;stroke:none;stroke-width:3;stroke-miterlimit:4;stroke-dasharray:none;stroke-opacity:1" />
          </g>
          <g
             style="fill:#1a1a1a"
             id="g3382"
             transform="matrix(0,1,-1,0,1052.3622,540.36216)">
            <path
               inkscape:connector-curvature="0"
               id="rect3384"
               d="M349.452270991 1451.56828381C349.452270991 1451.56828381 24.5200649289 1552.92059719 24.5200649289 1552.92059719C24.5200649289 1552.92059719 28.2788939016 1564.2612227 28.2788939016 1564.2612227C28.2788939016 1564.2612227 354.906003 1460.80439593 354.906003 1460.80439593C354.906003 1460.80439593 349.452270991 1451.56828381 349.452270991 1451.56828381"
               style="fill:#1a1a1a;fill-opacity:1;stroke:none;stroke-width:3;stroke-miterlimit:4;stroke-dasharray:none;stroke-opacity:1" />
            <path
               inkscape:connector-curvature="0"
               id="rect3386"
               d="M414.013007583 1560.90445954C414.013007583 1560.90445954 69.4821113769 1688.57394416 69.4821113769 1688.57394416C69.4821113769 1688.57394416 73.9619318367 1702.08984673 73.9619318367 1702.08984673C73.9619318367 1702.08984673 420.365748171 1571.66307844 420.365748171 1571.66307844C420.365748171 1571.66307844 414.013007583 1560.90445954 414.013007583 1560.90445954"
               style="fill:#1a1a1a;fill-opacity:1;stroke:none;stroke-width:3;stroke-miterlimit:4;stroke-dasharray:none;stroke-opacity:1" />
            <path
               inkscape:connector-curvature="0"
               id="rect3388"
               d="M293.699814 1357.14928C293.699814 1357.14928 -13.4982188334 1438.21702283 -13.4982188334 1438.21702283C-13.4982188334 1438.21702283 -10.2993608394 1447.86818037 -10.2993608394 1447.86818037C-10.2993608394 1447.86818037 298.432698049 1365.16460742 298.432698049 1365.16460742C298.432698049 1365.16460742 293.699814 1357.14928 293.699814 1357.14928"
               style="fill:#1a1a1a;fill-opacity:1;stroke:none;stroke-width:3;stroke-miterlimit:4;stroke-dasharray:none;stroke-opacity:1" />
            <path
               inkscape:connector-curvature="0"
               id="rect3390"
               d="M489.648454652 1688.99609801C489.648454652 1688.99609801 123.481427668 1851.49330765 123.481427668 1851.49330765C123.481427668 1851.49330765 128.911477754 1867.8761133 128.911477754 1867.8761133C128.911477754 1867.8761133 497.142304 1701.68723 497.142304 1701.68723C497.142304 1701.68723 489.648454652 1688.99609801 489.648454652 1688.99609801"
               style="fill:#1a1a1a;fill-opacity:1;stroke:none;stroke-width:3;stroke-miterlimit:4;stroke-dasharray:none;stroke-opacity:1" />
          </g>
        </g>
      </g>
      <path
         d="M-631.385068678 1000.33457874C-631.385068678 1000.33457874 -599.200444573 981.859443996 -599.200444573 981.859443996C-599.200444573 981.859443996 -591.811288929 950.741529521 -591.811288929 950.741529521C-591.811288929 950.741529521 -567.482963355 963.65246611 -567.482963355 963.65246611C-567.482963355 963.65246611 -538.061664267 946.763579561 -538.061664267 946.763579561C-538.061664267 946.763579561 -578.797691713 928.08307473 -578.797691713 928.08307473C-578.797691713 928.08307473 -562.632826362 874.292207593 -562.632826362 874.292207593C-562.632826362 874.292207593 -594.409017174 890.755175094 -594.409017174 890.755175094C-594.409017174 890.755175094 -603.334559734 924.196060946 -603.334559734 924.196060946C-603.334559734 924.196060946 -632.179655677 910.323813697 -632.179655677 910.323813697C-632.179655677 910.323813697 -666.69910586 928.208039969 -666.69910586 928.208039969C-666.69910586 928.208039969 -616.028933141 948.94207517 -616.028933141 948.94207517C-616.028933141 948.94207517 -631.385068678 1000.33457874 -631.385068678 1000.33457874C-631.385068678 1000.33457874 -631.385068678 1000.33457874 -631.385068678 1000.33457874"
         style="font-style:normal;font-variant:normal;font-weight:normal;font-stretch:normal;font-size:125px;line-height:125%;font-family:'Arial Black';-inkscape-font-specification:'Arial Black, ';letter-spacing:0px;word-spacing:0px;fill:#d40000;fill-opacity:1;stroke:none;stroke-width:1px;stroke-linecap:butt;stroke-linejoin:miter;stroke-opacity:1"
         id="path3636"
         inkscape:connector-curvature="0" />
      <path
         d="M-555.918176035 788.73687674C-551.375200722 801.194968734 -543.845082503 808.864864564 -533.420237012 811.808227713C-523.162750742 814.704338462 -511.221035833 812.733885622 -497.659029093 806.024092283C-484.008017988 799.270264096 -474.727345085 790.924628367 -469.646333122 780.927781676C-464.577202382 771.008220082 -463.934232266 760.217498455 -467.728177498 748.43640124C-470.505939222 739.810794145 -474.402483901 733.407938846 -479.436802843 729.246122051C-484.468215925 725.064219754 -490.610244282 722.736230621 -497.888741932 722.286755544C-505.197974726 721.850403589 -513.629206276 723.692830201 -523.21278137 727.857229652C-533.079901231 732.144839248 -540.861752033 737.145308321 -546.4878321 742.843413837C-552.108720165 748.559754074 -555.918350484 755.39318224 -557.890576728 763.318639268C-559.863476589 771.246833058 -559.199946398 779.73735676 -555.918176035 788.73687674C-555.918176035 788.73687674 -555.918176035 788.73687674 -555.918176035 788.73687674M-528.616395319 775.92615385C-531.31166824 768.253040914 -531.626266885 761.967411205 -529.549489266 757.111754654C-527.436186092 752.245515095 -523.576932972 748.558659226 -518.000388337 746.059510611C-512.309580762 743.509154647 -507.379698173 743.191360397 -503.199987174 745.081940853C-499.048715051 746.95966214 -495.580596984 752.093475732 -492.789081344 760.449265391C-490.455075832 767.435598853 -490.332422456 773.252720058 -492.413445656 777.936679542C-494.448873971 782.643536869 -498.165142936 786.297852127 -503.589526346 788.908496246C-508.823663471 791.427578743 -513.621195704 791.826906636 -517.977422326 790.083984607C-522.364531667 788.328714511 -525.914296106 783.618700408 -528.616395319 775.92615385C-528.616395319 775.92615385 -528.616395319 775.92615385 -528.616395319 775.92615385"
         style="font-style:normal;font-variant:normal;font-weight:normal;font-stretch:normal;font-size:160.92282104px;line-height:125%;font-family:'Arial Black';-inkscape-font-specification:'Arial Black, ';letter-spacing:0px;word-spacing:0px;fill:#0000aa;fill-opacity:1;stroke:none;stroke-width:1px;stroke-linecap:butt;stroke-linejoin:miter;stroke-opacity:1"
         id="path3639"
         inkscape:connector-curvature="0" />
    </g>
    <path
       inkscape:connector-curvature="0"
       id="path3763"
       d="M 0.68933147,683.41574 166.87823,1051.6466 511.41618,848.20411 430.34843,541.00605 Z"
       style="fill:none;fill-rule:evenodd;stroke:#000000;stroke-width:1.0050751px;stroke-linecap:butt;stroke-linejoin:miter;stroke-opacity:1" />
  </g>
</svg>
